<?xml version="1.0" encoding="utf-8"?>
<!-- Generator: Adobe Illustrator 25.0.1, SVG Export Plug-In . SVG Version: 6.00 Build 0)  -->
<svg version="1.1" id="Layer_1" xmlns="http://www.w3.org/2000/svg" xmlns:xlink="http://www.w3.org/1999/xlink" x="0px" y="0px"
	 viewBox="0 0 300 300" style="enable-background:new 0 0 300 300;" xml:space="preserve">
<style type="text/css">
	.st0{fill:#11402E;}
	.st1{fill:url(#SVGID_1_);}
	.st2{fill:url(#SVGID_2_);}
</style>
<g>
	<path class="st0" d="M299.6,143.6c-29.9,29.9-78.5,29.9-108.4,0s-29.9-78.5,0-108.4"/>
	
		<linearGradient id="SVGID_1_" gradientUnits="userSpaceOnUse" x1="78.5658" y1="231.1007" x2="-55.8471" y2="231.1007" gradientTransform="matrix(-1 -1.656068e-03 1.656068e-03 -1 243.6971 419.6247)">
		<stop  offset="9.058256e-02" style="stop-color:#E83944"/>
		<stop  offset="1" style="stop-color:#E7982F"/>
	</linearGradient>
	<path class="st1" d="M188.5,255.6c-30.7-30.8-30.6-80.7,0.2-111.4s80.7-30.6,111.4,0.2"/>
</g>
<g>
	<path class="st0" d="M258.7,106.8c0,42.3-57,76.7-127.2,76.7S4.2,149.2,4.2,106.8"/>
	
		<linearGradient id="SVGID_2_" gradientUnits="userSpaceOnUse" x1="251.4378" y1="322.4645" x2="51.3169" y2="322.4646" gradientTransform="matrix(-0.7059 -0.7083 0.7083 -0.7059 9.9455 508.3847)">
		<stop  offset="9.058256e-02" style="stop-color:#E83944"/>
		<stop  offset="1" style="stop-color:#E7982F"/>
	</linearGradient>
	<path class="st2" d="M0.8,184.4c0.1-43.5,58.7-78.7,130.9-78.6c72.2,0.1,130.6,35.4,130.4,78.9"/>
</g>
</svg>
