<?xml version="1.0" encoding="utf-8"?>
<!-- Generator: Adobe Illustrator 25.0.1, SVG Export Plug-In . SVG Version: 6.00 Build 0)  -->
<svg version="1.1" id="Layer_1" xmlns="http://www.w3.org/2000/svg" xmlns:xlink="http://www.w3.org/1999/xlink" x="0px" y="0px"
	 viewBox="0 0 300 300" style="enable-background:new 0 0 300 300;" xml:space="preserve">
<style type="text/css">
	.st0{display:none;}
	.st1{display:inline;fill:#11402E;}
	.st2{display:inline;fill:url(#SVGID_1_);}
	.st3{fill:#11402E;}
	.st4{fill:url(#SVGID_2_);}
	.st5{fill:url(#SVGID_3_);}
</style>
<g class="st0">
	<path class="st1" d="M258.7,104.8c0,42.3-57,76.7-127.2,76.7S4.2,147.2,4.2,104.8"/>
	
		<linearGradient id="SVGID_1_" gradientUnits="userSpaceOnUse" x1="252.8543" y1="323.8764" x2="52.7334" y2="323.8765" gradientTransform="matrix(-0.7059 -0.7083 0.7083 -0.7059 9.9455 508.3847)">
		<stop  offset="9.058256e-02" style="stop-color:#E83944"/>
		<stop  offset="1" style="stop-color:#E7982F"/>
	</linearGradient>
	<path class="st2" d="M0.8,182.4c0.1-43.5,58.7-78.7,130.9-78.6c72.2,0.1,130.6,35.4,130.4,78.9"/>
</g>
<path class="st3" d="M163.2,269.7c-8.5,0-15.3-6.9-15.3-15.4s6.9-15.3,15.4-15.3"/>
<path class="st3" d="M147.9,239c8.5,0,15.3,6.9,15.3,15.4s-6.9,15.3-15.4,15.3"/>
<linearGradient id="SVGID_2_" gradientUnits="userSpaceOnUse" x1="193.7698" y1="67.1797" x2="59.3568" y2="67.1798" gradientTransform="matrix(-0.7059 -0.7083 0.7083 -0.7059 197.318 362.5333)">
	<stop  offset="9.058256e-02" style="stop-color:#E83944"/>
	<stop  offset="1" style="stop-color:#E7982F"/>
</linearGradient>
<path class="st4" d="M76.8,241.6c0.1-43.5,35.4-78.7,78.9-78.6s78.7,35.4,78.6,78.9"/>
<linearGradient id="SVGID_3_" gradientUnits="userSpaceOnUse" x1="237.1715" y1="141.5443" x2="165.2132" y2="141.5444" gradientTransform="matrix(-0.7059 -0.7083 0.7083 -0.7059 197.318 362.5333)">
	<stop  offset="9.058256e-02" style="stop-color:#E83944"/>
	<stop  offset="1" style="stop-color:#E7982F"/>
</linearGradient>
<path class="st5" d="M113.4,128.8c0-23.3,18.9-42.1,42.2-42.1s42.1,18.9,42.1,42.2"/>
<path class="st3" d="M98.9,174.3c0-31.3,25.4-56.7,56.7-56.7s56.7,25.4,56.7,56.7"/>
<path class="st3" d="M155.3,56.9c8.8,8.8,8.8,23,0,31.7c-8.8,8.8-23,8.8-31.7,0"/>
<path class="st3" d="M190.7,87.1c-8.2,9.3-22.4,10.1-31.7,1.9c-9.3-8.2-10.1-22.4-1.9-31.7"/>
</svg>
